<?xml version="1.0" encoding="utf-8"?>
<!-- Generator: Adobe Illustrator 24.2.1, SVG Export Plug-In . SVG Version: 6.00 Build 0)  -->
<svg version="1.1" id="Layer_1" xmlns="http://www.w3.org/2000/svg" xmlns:xlink="http://www.w3.org/1999/xlink" x="0px" y="0px"
	 viewBox="0 0 45 45" style="enable-background:new 0 0 45 45;" xml:space="preserve">
<style type="text/css">
	.st0{fill-rule:evenodd;clip-rule:evenodd;fill:#20C20E;stroke:#20C20E;stroke-width:1.5;stroke-linejoin:round;}
</style>
<g transform="translate(0,0.6)">
	<g>
		<path class="st0" d="M9,36c3.4-1,10.1,0.4,13.5-2c3.4,2.4,10.1,1,13.5,2c0,0,1.7,0.5,3,2c-0.7,1-1.7,1-3,0.5
			c-3.4-1-10.1,0.5-13.5-1c-3.4,1.5-10.1,0-13.5,1C7.7,39,6.7,39,6,38C7.3,36.5,9,36,9,36z"/>
		<path class="st0" d="M30,30c0,0,0-0.1,0-0.1c0,0.7-0.5,1.5-1.4,1.5c-0.5,0-1-0.1-1.5-0.1c-0.5,0-0.9,0-1.4,0.1c-1,0.1-2,0.1-3,0.1
			c-2.1,0-4.1-0.1-6.2-0.1c-1.9,0-1.9-3,0-3c2.1,0,4.1,0.1,6.2,0.1c1,0,2.1,0,3.1-0.1c0.9-0.1,1.8,0.1,2.8,0c0.8,0,1.3,0.5,1.4,1.1
			c-0.3-1.7-1.6-2.8-2.2-3.3c-0.1,0.7-0.8,1.2-1.5,1.2c-2.7,0-5.4,0.1-8.1,0.1c-0.7,0-1.2-0.4-1.4-1C16.1,27.2,15,28.4,15,30
			c0,0-0.5,0.5,0,2c2.5,2.5,12.5,2.5,15,0C30.5,30.5,30,30,30,30z"/>
		<path class="st0" d="M16.7,25.7c0.1-0.7,0.8-1.2,1.5-1.2c2.7,0,5.4-0.1,8.1-0.1c0.8,0,1.4,0.7,1.5,1.5c5.2-1.8,5.5-11.5-5.3-15.4
			C12.1,14.3,12,23.5,16.7,25.7z M19.9,16.5c0.4,0,0.8,0,1.3,0c0-0.4,0-0.7,0-1.1c0-0.8,0.7-1.5,1.5-1.5c0.8,0,1.5,0.7,1.5,1.5
			c0,0.4,0,0.8,0,1.2c0.4,0,0.8,0,1.1,0c0.8,0,1.5,0.7,1.5,1.5c0,0.8-0.7,1.5-1.5,1.5c-0.4,0-0.8,0-1.2,0c0,0.4,0,0.8,0,1.2
			c0,0.8-0.7,1.5-1.5,1.5c-0.8,0-1.5-0.7-1.5-1.5c0-0.4,0-0.9,0-1.3c-0.4,0-0.8,0-1.2,0c-0.8,0-1.5-0.7-1.5-1.5
			C18.4,17.2,19.1,16.5,19.9,16.5z"/>
		<path class="st0" d="M25,8c0,1.4-1.1,2.5-2.5,2.5S20,9.4,20,8s1.1-2.5,2.5-2.5S25,6.6,25,8z"/>
	</g>
</g>
</svg>
