<?xml version="1.0" encoding="utf-8"?>
<!-- Generator: Adobe Illustrator 24.2.1, SVG Export Plug-In . SVG Version: 6.00 Build 0)  -->
<svg version="1.1" id="Layer_1" xmlns="http://www.w3.org/2000/svg" xmlns:xlink="http://www.w3.org/1999/xlink" x="0px" y="0px"
	 viewBox="0 0 45 45" style="enable-background:new 0 0 45 45;" xml:space="preserve">
<style type="text/css">
	.st0{fill-rule:evenodd;clip-rule:evenodd;fill:#20C20E;stroke:#20C20E;stroke-width:1.5;stroke-linejoin:round;}
	.st1{fill-rule:evenodd;clip-rule:evenodd;fill:#20C20E;stroke:#20C20E;stroke-width:1.5;}
</style>
<g transform="translate(0,0.3)">
	<path class="st0" d="M32.6,36c0,0.7-0.5,1.4-1.4,1.4c-5.9,0-11.7,0.1-17.6,0.1c-1,0-1.4-0.7-1.4-1.5H9v3h27v-3H32.6z"/>
	<path class="st0" d="M14.6,30.8c5.2,0,10.3-0.1,15.5-0.1c0.9,0,1.3,0.6,1.4,1.3h1L31,29.5h-1.3c-0.4,0.5-1,0.7-1.6,0.6
		c-0.9-0.1-1.9-0.1-2.8,0c-1,0-2,0-3,0c-2,0-3.9-0.1-5.9,0.3c-0.7,0.1-1.5-0.2-1.8-0.9H14L12.5,32h0.7
		C13.3,31.4,13.8,30.8,14.6,30.8z"/>
	<path class="st0" d="M31.5,32c0.1,0.8-0.4,1.7-1.4,1.7c-5.2,0-10.3,0.1-15.5,0.1c-1.1,0-1.6-1-1.4-1.8H12v4h0.1
		c0-0.8,0.5-1.5,1.4-1.5c5.9,0,11.7-0.1,17.6-0.1c1,0,1.5,0.8,1.4,1.6H33v-4H31.5z"/>
	<path class="st1" d="M30.2,16.5c0.3,0.9-0.2,2-1.4,2c-4.1,0-8.2,0.2-12.4,0.2c-1.3,0-1.7-1.3-1.3-2.2H14v13h0.7
		c0-0.1-0.1-0.1-0.1-0.2c-0.2-0.7,0.3-1.7,1-1.8c2.2-0.4,4.4-0.4,6.7-0.4c2.2,0,4.4-0.2,6.6,0.1c0.8,0.1,1.2,1.1,1,1.8
		c0,0.2-0.1,0.3-0.2,0.4H31v-13H30.2z"/>
	<path class="st0" d="M31.3,14c-0.2,0.5-0.6,0.9-1.3,0.9H14.5c-0.7,0-1.1-0.4-1.3-0.9H11l3,2.5h1.2c0.2-0.4,0.6-0.8,1.3-0.8
		c4.1,0,8.2-0.2,12.4-0.2c0.7,0,1.2,0.4,1.4,1H31l3-2.5H31.3z"/>
	<path class="st0" d="M30,9v2h-5V9h-5v2h-5V9h-4v5h2.2c-0.3-0.9,0.1-2.1,1.3-2.1H30c1.2,0,1.7,1.2,1.3,2.1H34V9H30z"/>
</g>
</svg>
