<?xml version="1.0" encoding="utf-8"?>
<!-- Generator: Adobe Illustrator 24.2.1, SVG Export Plug-In . SVG Version: 6.00 Build 0)  -->
<svg version="1.1" id="Layer_1" xmlns="http://www.w3.org/2000/svg" xmlns:xlink="http://www.w3.org/1999/xlink" x="0px" y="0px"
	 viewBox="0 0 45 45" style="enable-background:new 0 0 45 45;" xml:space="preserve">
<style type="text/css">
	.st0{fill:#20C20E;stroke:#20C20E;stroke-width:1.5;stroke-linecap:round;}
	.st1{fill-rule:evenodd;clip-rule:evenodd;fill:#20C20E;stroke:#20C20E;stroke-width:1.5;}
	
		.st2{fill-rule:evenodd;clip-rule:evenodd;fill:#20C20E;stroke:#20C20E;stroke-width:1.5;stroke-linecap:round;stroke-linejoin:round;}
	.st3{fill:#20C20E;stroke:#20C20E;stroke-width:1.5;stroke-linecap:round;stroke-linejoin:round;}
</style>
<g>
	<path id="path6570" class="st0" d="M22.5,11.6V6"/>
	<path class="st1" d="M25.5,14.5c0,0-1-2.5-3-2.5s-3,2.5-3,2.5c-0.3,0.7-0.4,1.6-0.2,2.7c0.1-0.2,0.3-0.4,0.5-0.5
		c0.3-0.2,0.8-0.3,1.2-0.2c0.4,0.1,0.7,0.4,0.9,0.7c0,0,0,0.1,0.1,0.1c0.1,0.1,0.1,0.2,0.2,0.2c0.1-0.1,0.1-0.2,0.2-0.2
		c0.1-0.2,0.3-0.4,0.4-0.6c0.1-0.2,0.3-0.3,0.5-0.4c0.3-0.2,0.8-0.2,1.2-0.2c0.4,0.1,0.7,0.4,0.9,0.7c0.2,0.3,0.3,0.8,0.2,1.2
		c-0.1,0.4-0.4,0.6-0.7,0.9c0,0,0.1-0.1,0.1-0.1c0,0,0,0,0,0l0,0c0.1,0,0.1-0.1,0.2-0.1c-0.1,0.1-0.2,0.2-0.3,0.4
		c-0.3,0.3-0.5,0.7-0.8,1c-0.2,0.2-0.4,0.4-0.7,0.5c-0.5,0.3-1,0.3-1.5,0.2c-0.6-0.1-1.1-0.5-1.6-0.9c-0.1-0.1-0.2-0.2-0.3-0.3
		c0.2,0.6,0.5,1.2,0.7,1.8c0.6,0.6,1.1,1.2,1.5,1.9c0.8-1,1.6-1.9,2.5-2.7C25.6,18.4,26.2,15.9,25.5,14.5z M24.6,15
		c-0.1,0.3-0.2,0.5-0.4,0.7l-0.3,0.2c-0.2,0.1-0.4,0.2-0.6,0.2c-0.2,0-0.4,0-0.6,0c-0.1,0-0.2-0.1-0.3-0.1c-0.2,0.1-0.4,0.2-0.7,0.2
		c-0.1,0-0.3,0-0.4-0.1c-0.2,0-0.4-0.1-0.5-0.3c-0.2-0.1-0.3-0.2-0.4-0.4c-0.1-0.2-0.2-0.4-0.2-0.6c0-0.2,0-0.4,0-0.6
		c0,0,0-0.1,0-0.1c0-0.1,0.1-0.2,0.1-0.2c0-0.1,0.1-0.2,0.1-0.2c0.1-0.2,0.2-0.3,0.3-0.5c0.1-0.1,0.2-0.2,0.3-0.3c0,0,0,0,0,0
		c0,0,0,0,0,0c0.1-0.1,0.3-0.1,0.4-0.2c0,0,0.1,0,0.1,0c0.2,0,0.3-0.1,0.5-0.1c0,0,0.1,0,0.1,0c0.2,0,0.3,0,0.5,0.1
		c0.1,0,0.1,0,0.2,0c0.2,0.1,0.4,0.1,0.5,0.2c0.2,0.1,0.3,0.2,0.5,0.3c0.2,0.2,0.3,0.4,0.5,0.6c0.1,0.2,0.2,0.5,0.2,0.8
		C24.6,14.8,24.6,14.9,24.6,15z"/>
	<path class="st2" d="M38.5,19.5c-3.8-6.1-12.4-3.8-15.5,2.7c1.1-1.3,2.5-2.5,4-3.3c2.8-1.7,7.8-3.6,10.4-0.4
		c1.5,1.9,1.6,4.7,0.2,6.7c-1.3,1.9-3.3,3-5.3,4.2c-1.7,1-3.2-1.6-1.5-2.6c1.6-1,3.5-1.9,4.4-3.5c0.3-0.6,0.5-1.2,0.3-1.9
		c0-0.1-0.1-0.3-0.1-0.4c0-0.1,0-0.1,0-0.1c-0.1-0.1-0.1-0.3-0.2-0.4c0,0,0,0,0,0c0,0-0.1-0.1-0.1-0.1c-0.1-0.1-0.1-0.1-0.2-0.2
		c0,0,0,0,0,0c-0.1,0-0.3-0.1-0.3-0.2c-0.1,0-0.3-0.1-0.4-0.1c-0.1,0-0.1,0-0.2,0c0,0,0,0,0,0c-0.2,0-0.3,0-0.5,0
		c-0.7,0-1.1,0.1-1.9,0.3c-1.3,0.4-2.4,0.9-3.7,1.8c-1.7,1.1-3.1,2.8-4.2,4.5c-0.3,0.5-0.8,0.7-1.3,0.7c-0.1,0.1-0.2,0.2-0.4,0.2
		c0.3,0,0.6,0,0.9,0c1.4,0,2.9,0.2,4.2,0.6c1.2,0.3,2.2,1.1,3.4,1.6c0.8,0.3,1.3,1,1,1.8c-0.2,0.7-1.1,1.4-1.8,1
		c-1.1-0.4-2.1-1.2-3.2-1.5c-1.2-0.4-2.4-0.5-3.7-0.6c-1.2,0-2.4,0-3.6,0.4C18,31,16.8,31.6,15.6,32c-0.8,0.3-1.6-0.3-1.8-1
		c-0.2-0.8,0.3-1.6,1-1.8c1.3-0.5,2.5-1,3.8-1.4c0.9-0.2,1.8-0.4,2.7-0.4c-0.6-0.1-1.1-0.5-1.2-1.1c-0.3-1.8-2.1-3.3-3.4-4.6
		c0,0-0.1-0.1-0.1-0.1c-0.1,0-0.1-0.1-0.2-0.1c-0.1-0.1-0.3-0.2-0.4-0.3c-0.3-0.2-0.6-0.4-0.9-0.5c-0.1-0.1-0.2-0.1-0.3-0.2
		c0,0,0,0,0,0c-0.2-0.1-0.3-0.1-0.5-0.2c-0.3-0.1-0.7-0.2-1-0.3c0,0-0.1,0-0.1,0c0,0,0,0,0,0c-0.1,0-0.2,0-0.3,0c-0.2,0-0.3,0-0.5,0
		c-0.1,0-0.3,0-0.4,0c-0.1,0-0.3,0.1-0.4,0.1c-0.4,0.1-0.3,0.1-0.7,0.3c0,0,0,0,0,0c0,0,0,0,0,0c-0.1,0-0.1,0.1-0.2,0.1
		c-0.1,0.1-0.1,0.1-0.2,0.2c0,0-0.1,0.1-0.1,0.1c-0.1,0.1-0.2,0.3-0.3,0.5c0,0,0,0.2-0.1,0.3c0,0.1,0,0.2,0,0.3c0,0,0,0.1,0,0.1
		c0,0.1,0,0.1,0,0.2c0,0.1,0.1,0.4,0.1,0.4c0,0,0.1,0.2,0.1,0.2c0,0.1,0.1,0.1,0.1,0.2c0.2,0.3,0.5,0.7,0.6,0.8
		c1,1.2,2.2,2.2,3.3,3.2c0.6,0.5,0.5,1.6,0,2.1c-0.6,0.6-1.5,0.5-2.1,0c-1.6-1.4-3.4-2.8-4.4-4.7c-1.1-2-0.9-4.3,0.8-5.9
		c1.5-1.5,3.7-1.7,5.7-1.3c1.8,0.4,3.6,1.4,5,2.6c1.1,1,2.3,2.2,3.1,3.5c0.1-0.1,0.1-0.2,0.2-0.2c-0.4-1-0.8-1.8-1.4-2.6
		c-0.3-0.2-0.5-0.4-0.7-0.6c-0.3-0.3-0.7-0.7-0.9-1.1c0-0.1-0.1-0.1-0.1-0.2c-3.9-3.4-9.8-3.8-12.7,1c-3,6,6,10.5,6,10.5v7
		c5.5,3.5,14.5,3.5,20,0v-7C32.5,30,41.5,25.5,38.5,19.5z M28.9,38.2c-3.7,2.1-8.1,1.3-12.1,0.5c-0.8-0.2-1.3-1.1-1-1.8
		c0.2-0.8,1.1-1.2,1.8-1c1.8,0.4,3.3,0.7,5.1,0.7c1.7,0.1,3.3-0.1,4.7-0.9c0.7-0.4,1.6-0.2,2.1,0.5C29.9,36.8,29.6,37.8,28.9,38.2z
		 M32,35.6c-0.4,0.6-1.4,1-2.1,0.5c-1.8-1.4-4.4-1.5-6.5-1.6c-2.4-0.1-5.2-0.2-7.3,1.1c-1.7,1-3.2-1.6-1.5-2.6
		c2.6-1.6,5.9-1.6,8.8-1.5c2.7,0.1,5.8,0.4,8,2C32.1,34,32.4,34.8,32,35.6z"/>
	<path class="st0" d="M20,8h5"/>
	<path class="st3" d="M20.6,21.3c-1-1.3-2.3-2.3-3.7-3.1c0.8,0.4,1.5,0.9,2.2,1.5C19.6,20.3,20.1,20.8,20.6,21.3z"/>
	<path class="st3" d="M13.6,29.5h0.6c0.2-0.2,0.4-0.3,0.6-0.4c1.3-0.5,2.5-1,3.8-1.4c0.9-0.2,1.8-0.4,2.7-0.4
		c-0.6-0.1-1.1-0.5-1.2-1.1c-0.3-1.8-2.1-3.3-3.4-4.6c0,0-0.1-0.1-0.1-0.1c-0.1,0-0.1-0.1-0.2-0.1c-0.1-0.1-0.3-0.2-0.4-0.3
		c-0.3-0.2-0.6-0.4-0.9-0.5c-0.1-0.1-0.2-0.1-0.3-0.2c0,0,0,0,0,0c-0.2-0.1-0.3-0.1-0.5-0.2c-0.3-0.1-0.7-0.2-1-0.3c0,0-0.1,0-0.1,0
		c0,0,0,0,0,0c-0.1,0-0.2,0-0.3,0c-0.2,0-0.3,0-0.5,0c-0.1,0-0.3,0-0.4,0c-0.1,0-0.3,0.1-0.4,0.1c-0.4,0.1-0.3,0.1-0.7,0.3
		c0,0,0,0,0,0c0,0,0,0,0,0c-0.1,0-0.1,0.1-0.2,0.1c-0.1,0.1-0.1,0.1-0.2,0.2c0,0-0.1,0.1-0.1,0.1c-0.1,0.1-0.2,0.3-0.3,0.5
		c0,0,0,0.2-0.1,0.3c0,0.1,0,0.2,0,0.3c0,0,0,0.1,0,0.1c0,0.1,0,0.1,0,0.2c0,0.1,0.1,0.4,0.1,0.4c0,0,0.1,0.2,0.1,0.2
		c0,0.1,0.1,0.1,0.1,0.2c0.2,0.3,0.5,0.7,0.6,0.8c1,1.2,2.2,2.2,3.3,3.2c0.6,0.5,0.5,1.6,0,2.1C14,29.3,13.8,29.4,13.6,29.5z"/>
	<path class="st3" d="M35.5,21.4c0-0.1-0.1-0.3-0.1-0.4c0-0.1,0-0.1,0-0.1c-0.1-0.1-0.1-0.3-0.2-0.4c0,0,0,0,0,0
		c0,0-0.1-0.1-0.1-0.1c-0.1-0.1-0.1-0.1-0.2-0.2c0,0,0,0,0,0c-0.1,0-0.3-0.1-0.3-0.2c-0.1,0-0.3-0.1-0.4-0.1c-0.1,0-0.1,0-0.2,0
		c0,0,0,0,0,0c-0.2,0-0.3,0-0.5,0c-0.7,0-1.1,0.1-1.9,0.3c-1.3,0.4-2.4,0.9-3.7,1.8c-1.7,1.1-3.1,2.8-4.2,4.5
		c-0.3,0.5-0.8,0.7-1.3,0.7c-0.1,0.1-0.2,0.2-0.4,0.2c0.3,0,0.6,0,0.9,0c1.4,0,2.9,0.2,4.2,0.6c1.2,0.3,2.2,1.1,3.4,1.6
		c0,0,0,0,0.1,0H31c-1-0.4-1.4-2-0.2-2.7c1.6-1,3.5-1.9,4.4-3.5C35.5,22.7,35.7,22.1,35.5,21.4z"/>
	<path class="st3" d="M7.6,24.4c-1.1-2-0.9-4.3,0.8-5.9c0.7-0.7,1.6-1.1,2.5-1.3C9.4,17.5,8,18.4,7,19.9c-1.7,3.9,1.8,7,4.2,8.5
		C9.8,27.3,8.4,26,7.6,24.4z"/>
	<path class="st3" d="M30.5,29.5c0.3,0.1,0.6,0.3,0.8,0.5h1.3c-0.3-0.1-0.5-0.3-0.8-0.4c-0.5,0.1-0.9-0.2-1.2-0.5
		c-0.7-0.2-1.3-0.4-2-0.6C29.1,28.8,29.8,29.2,30.5,29.5z"/>
	<path class="st3" d="M14.8,29.1c0.5-0.2,0.9-0.4,1.4-0.5c-0.8,0.2-1.6,0.5-2.3,0.8c-0.1,0.1-0.3,0.2-0.5,0.2
		c-0.3,0.1-0.6,0.3-0.9,0.5h1.4C14,29.6,14.4,29.3,14.8,29.1z"/>
	<path class="st3" d="M15.8,36.8c0.2-0.8,1.1-1.2,1.8-1c1.8,0.4,3.3,0.7,5.1,0.7c1.7,0.1,3.3-0.1,4.7-0.9c0.2-0.1,0.5-0.2,0.7-0.2
		c-3.7-0.9-8-0.9-11.7,0.1c-0.1,0.1-0.2,0.1-0.3,0.2c-0.3,0.2-0.6,0.3-0.9,0.2c-1,0.3-1.9,0.7-2.7,1.1h3.3
		C15.8,36.9,15.8,36.9,15.8,36.8z"/>
	<path class="st3" d="M29.5,36.1c0.2,0.3,0.2,0.6,0.2,0.9h2.8c-0.5-0.3-1-0.5-1.5-0.7c-0.4,0.1-0.8,0.1-1.1-0.2
		c-0.3-0.2-0.5-0.4-0.8-0.5c-0.1,0-0.2,0-0.3-0.1C29.1,35.7,29.3,35.9,29.5,36.1z"/>
	<path class="st3" d="M14.6,33.1c2.6-1.6,5.9-1.6,8.8-1.5c2.6,0.1,5.8,0.4,8,2h1.1c-0.8-0.4-1.6-0.8-2.5-1.1c-0.1,0-0.2,0-0.4-0.1
		c-0.1,0-0.2-0.1-0.3-0.1C24,30.6,17.1,31,12.5,33.5h1.6C14.3,33.3,14.4,33.2,14.6,33.1z"/>
</g>
</svg>
