<?xml version="1.0" encoding="utf-8"?>
<!-- Generator: Adobe Illustrator 24.2.1, SVG Export Plug-In . SVG Version: 6.00 Build 0)  -->
<svg version="1.1" id="Layer_1" xmlns="http://www.w3.org/2000/svg" xmlns:xlink="http://www.w3.org/1999/xlink" x="0px" y="0px"
	 viewBox="0 0 45 45" style="enable-background:new 0 0 45 45;" xml:space="preserve">
<style type="text/css">
	
		.st0{fill-rule:evenodd;clip-rule:evenodd;fill:#20C20E;stroke:#20C20E;stroke-width:1.5;stroke-linecap:round;stroke-linejoin:round;}
	.st1{fill-rule:evenodd;clip-rule:evenodd;fill:#20C20E;stroke:#20C20E;stroke-miterlimit:10;}
</style>
<g transform="translate(0,0.3)">
	<path class="st0" d="M22,10l1,8c2,14.5-8,12-8,21h23C38.5,18,32.5,11,22,10z M33.4,37.4c0-5.3,0-10.4-1.8-15.4
		c-1.3-3.6-3.9-7.9-8-8.5c-1.9-0.3-1.1-3.2,0.8-2.9c4.8,0.7,7.9,5.3,9.7,9.4c2.3,5.6,2.4,11.4,2.4,17.4
		C36.4,39.3,33.4,39.3,33.4,37.4z"/>
	<path class="st0" d="M24,18l-1.2-4.9c-0.4-0.3-0.4-0.8-0.3-1.3L22,10c0,0,0-3-1-3c-1.7,1-2.5,3-2.5,3h-2c0,0-2-3.5-3-2.5
		c0,1-0.2,2,0.5,3c-0.1,1.6-2,3.5-2,3.5S6,24,6,26c0,5,3,4,4,4c1.2-0.8,0-2,1-2c1.4,0-1,2.1,0,3c2.2,0.3,2-2,5-4
		C18.5,25.4,24.4,20.9,24,18z M8.9,26.8c-1.9,0-1.9-3,0-3C10.8,23.8,10.8,26.8,8.9,26.8z M16.4,15c0,0.2-0.1,0.4-0.2,0.6
		c-0.3,0.5-0.7,1-0.9,1.5c-0.1,0.2-0.2,0.3-0.3,0.4l-0.3,0.2c-0.2,0.1-0.5,0.2-0.8,0.2c-0.1,0-0.3,0-0.4-0.1c-0.2,0-0.4-0.1-0.5-0.3
		c-0.2-0.1-0.3-0.2-0.4-0.4c-0.1-0.2-0.2-0.4-0.2-0.6c0-0.2,0-0.4,0-0.6c0.2-0.4,0.3-0.8,0.6-1.2c0.2-0.3,0.4-0.5,0.6-0.8
		c0.2-0.3,0.5-0.6,0.9-0.7c0.4-0.1,0.8,0,1.2,0.2c0.2,0.1,0.3,0.2,0.4,0.4c0.1,0.1,0.2,0.3,0.3,0.5C16.4,14.6,16.4,14.8,16.4,15z"/>
	<path class="st1" d="M34.3,17.8c-2.4-4.4-5.8-6.6-9.2-7.2l-0.6-0.2l0,0.2c4.7,0.8,7.8,5.3,9.5,9.4c2.3,5.6,2.4,11.4,2.4,17.4
		c0,0.8-0.5,1.2-1,1.4c0,0.1,0,0.2,0,0.4v0.5h2.3v-0.5C38.1,29,36.7,22.2,34.3,17.8z"/>
</g>
</svg>
