<?xml version="1.0" encoding="utf-8"?>
<!-- Generator: Adobe Illustrator 24.2.1, SVG Export Plug-In . SVG Version: 6.00 Build 0)  -->
<svg version="1.1" id="Layer_1" xmlns="http://www.w3.org/2000/svg" xmlns:xlink="http://www.w3.org/1999/xlink" x="0px" y="0px"
	 viewBox="0 0 45 45" style="enable-background:new 0 0 45 45;" xml:space="preserve">
<style type="text/css">
	.st0{fill:#20C20E;stroke:#20C20E;stroke-width:1.5;stroke-linecap:round;}
</style>
<path class="st0" d="M26.6,26c1.5-1.2,2.4-3,2.4-5c0-2.4-1.3-4.5-3.3-5.6c0.5-0.7,0.8-1.5,0.8-2.4c0-2.2-1.8-4-4-4s-4,1.8-4,4
	c0,0.9,0.3,1.7,0.8,2.4c-2,1.1-3.3,3.2-3.3,5.6c0,2,0.9,3.8,2.4,5c-3,1.1-7.4,5.5-7.4,13.5h23C34,31.6,29.6,27.1,26.6,26z
	 M23.6,14.7c-0.2-0.1-0.3-0.2-0.4-0.4c-0.1-0.1-0.2-0.3-0.3-0.5c-0.1-0.3-0.2-0.6-0.3-0.9c-0.1-0.2-0.2-0.4-0.3-0.5
	c-0.1-0.2-0.2-0.5-0.2-0.8c0-0.1,0-0.3,0.1-0.4c0.1-0.4,0.4-0.7,0.7-0.9c0.2-0.1,0.4-0.2,0.6-0.2c0.2,0,0.4,0,0.6,0
	c0.2,0,0.4,0.1,0.5,0.3c0.2,0.1,0.3,0.2,0.4,0.4c0.3,0.4,0.5,0.8,0.6,1.2c0.1,0.3,0.2,0.6,0.3,0.9c0.1,0.4,0,0.8-0.2,1.2
	c-0.2,0.3-0.5,0.6-0.9,0.7c-0.2,0.1-0.4,0.1-0.6,0C24,14.9,23.8,14.8,23.6,14.7z M25.6,19.6c-0.1-0.2-0.3-0.4-0.5-0.5
	c-0.2-0.1-0.4-0.3-0.5-0.5c-0.1-0.1-0.1-0.2-0.2-0.4c-0.1-0.3-0.1-0.5,0-0.8c0.1-0.1,0.1-0.2,0.2-0.4c0.1-0.2,0.2-0.3,0.4-0.4
	c0.1-0.1,0.3-0.2,0.5-0.3c0.2-0.1,0.4-0.1,0.6,0c0.2,0,0.4,0.1,0.6,0.2c0.2,0.1,0.4,0.3,0.6,0.4c0.1,0.1,0.2,0.1,0.2,0.2
	c0.2,0.2,0.4,0.5,0.6,0.8c0.1,0.2,0.2,0.5,0.2,0.8c0,0.1,0,0.3-0.1,0.4c-0.1,0.3-0.2,0.5-0.4,0.7l-0.3,0.2c-0.2,0.1-0.4,0.2-0.6,0.2
	c-0.2,0-0.4,0-0.6,0c-0.2,0-0.4-0.1-0.5-0.3c-0.2-0.1-0.3-0.2-0.4-0.4C25.5,19.4,25.5,19.5,25.6,19.6z M29.9,30.7
	c-0.1,0.1-0.3,0.2-0.5,0.3c-0.2,0.1-0.4,0.1-0.6,0.1c-0.2,0-0.4,0-0.6-0.1c-0.2-0.1-0.3-0.2-0.5-0.3c-0.4-0.4-0.7-0.8-1.1-1.2
	c-0.2-0.2-0.3-0.4-0.4-0.7c0-0.1,0-0.3-0.1-0.4c0-0.3,0.1-0.5,0.2-0.8l0.2-0.3c0.1-0.1,0.3-0.2,0.5-0.3c0.2-0.1,0.4-0.1,0.6-0.1
	c0.2,0,0.4,0,0.6,0.1c0.2,0.1,0.3,0.2,0.5,0.3c0.4,0.4,0.8,0.8,1.1,1.2c0.2,0.2,0.3,0.4,0.4,0.7c0,0.1,0,0.3,0.1,0.4
	c0,0.3-0.1,0.5-0.2,0.8L29.9,30.7z"/>
</svg>
