<?xml version="1.0" encoding="utf-8"?>
<!-- Generator: Adobe Illustrator 24.2.1, SVG Export Plug-In . SVG Version: 6.00 Build 0)  -->
<svg version="1.1" id="Layer_1" xmlns="http://www.w3.org/2000/svg" xmlns:xlink="http://www.w3.org/1999/xlink" x="0px" y="0px"
	 viewBox="0 0 45 45" style="enable-background:new 0 0 45 45;" xml:space="preserve">
<style type="text/css">
	.st0{fill:#20C20E;stroke:#20C20E;stroke-width:1.5;stroke-linejoin:round;}
	.st1{fill:#20C20E;stroke:#20C20E;stroke-width:1.5;stroke-linecap:round;stroke-linejoin:round;}
</style>
<g>
	<path class="st0" d="M14.6,25.3c-0.1-0.1-0.1-0.2-0.2-0.3c-0.1-0.2-0.1-0.4-0.1-0.6c0-0.5,0-1,0.1-1.5c0.1-0.2,0.1-0.4,0.3-0.6
		c0.1-0.1,0.2-0.3,0.3-0.4c0.1-0.1,0.2-0.2,0.3-0.3c0,0,0,0,0,0c0.3-0.2,0.6-0.3,0.9-0.2c0.1,0,0.3,0,0.5,0.1c0,0,0,0,0.1,0
		c0,0,0.1,0,0.1,0c0.2,0.1,0.4,0.2,0.6,0.3c0.2,0.1,0.4,0.3,0.6,0.5c0.3,0.3,0.5,0.5,0.7,0.8l-4.6-12.1L14,25L6.5,13.5c0,0,0,0,0,0
		L9,26c0.1,0,0.1,0,0.2,0c-0.1-0.1-0.1-0.3-0.1-0.5c0-0.2,0-0.3,0-0.5c0-0.2-0.1-0.5-0.2-0.7c-0.1-0.3-0.1-0.5,0-0.8
		c0.1-0.3,0.2-0.5,0.4-0.7c0.2-0.2,0.4-0.3,0.7-0.4c0.3-0.1,0.5-0.1,0.8,0c0.4,0.1,0.8,0.3,1.1,0.6c0.3,0.2,0.5,0.4,0.8,0.5
		c0.3,0.2,0.6,0.5,0.7,0.9c0.1,0.3,0.1,0.7-0.1,1C13.7,25.4,14.2,25.3,14.6,25.3z"/>
	<path class="st0" d="M30.5,25.2c0.4,0,0.7,0.1,1.1,0.1c-0.1-0.2-0.1-0.3-0.2-0.5c0-0.1,0-0.3,0-0.4L31,25l-0.3-14.1l-5.2,13.6
		l-3-14.5l-3,14.5L19.3,24c0,0.1,0,0.3-0.1,0.4c-0.1,0.2-0.2,0.4-0.3,0.6c0.8,0,1.6-0.1,2.4-0.1c-0.1,0-0.2,0-0.3,0
		c-0.2,0-0.4-0.1-0.5-0.3c-0.2-0.1-0.3-0.2-0.4-0.4C20.1,24,20,23.8,20,23.6c0-0.2,0-0.4,0-0.6c0.1-0.3,0.2-0.5,0.3-0.8
		c0.1-0.2,0.3-0.4,0.5-0.6c0.1-0.1,0.2-0.2,0.3-0.3c0.2-0.2,0.4-0.3,0.7-0.5c0.2-0.1,0.4-0.2,0.6-0.2c0.1,0,0.3,0,0.4,0
		c0.2,0,0.4,0.1,0.6,0.2l0.3,0.2c0.2,0.2,0.3,0.4,0.5,0.7c0.1,0.2,0.2,0.5,0.3,0.8c0.1,0.3,0.2,0.6,0.3,0.9c0.1,0.4,0,0.8-0.2,1.2
		c-0.1,0.1-0.2,0.2-0.3,0.3c0.8,0,1.7,0,2.5,0.1c-0.1-0.1-0.3-0.2-0.4-0.3c-0.1-0.1-0.2-0.3-0.3-0.5C26,24,26,23.8,26,23.6
		c0-0.4,0.2-0.8,0.4-1.1c0.3-0.3,0.6-0.6,1-0.8c0,0,0.1,0,0.1-0.1c0.1-0.1,0.3-0.1,0.5-0.2c0.3-0.1,0.5-0.1,0.8,0
		c0.1,0,0.2,0,0.3,0.1c0.1,0,0.3,0.1,0.4,0.2c0,0,0,0,0,0c0.1,0.1,0.2,0.2,0.3,0.3c0,0,0,0,0,0c0.1,0.1,0.2,0.2,0.3,0.4
		c0.1,0.1,0.1,0.3,0.2,0.4c0.1,0.2,0.1,0.3,0.2,0.5c0.1,0.4,0.1,0.8,0.2,1.2C30.7,24.6,30.7,24.9,30.5,25.2L30.5,25.2z"/>
	<path class="st0" d="M32.1,23.3C32.1,23.3,32.1,23.3,32.1,23.3c0.6-0.3,1.1-0.6,1.5-0.9c0.2-0.1,0.5-0.2,0.8-0.2
		c0.2,0,0.4,0,0.6,0.1c0.2,0.1,0.3,0.2,0.5,0.3c0.2,0.2,0.3,0.4,0.4,0.7c0.1,0.4,0.2,0.8,0.2,1.1c0,0.3,0,0.6,0,0.8
		c0,0.2-0.1,0.5-0.2,0.7c0,0,0.1,0,0.1,0l2.5-12.5L32.1,23.3z"/>
	<path class="st1" d="M33.1,38c-2.1,0.6-4.1,1-6.2,1.1c2.6-0.1,5-0.3,7.1-0.7c0,0,1.4-1,0.1-2.4C34.3,36.8,34.1,37.7,33.1,38z"/>
	<path class="st1" d="M35.7,26.4c-0.3,0.3-0.7,0.4-1.1,0.4c-0.2,0-0.4,0-0.6-0.1c-0.2-0.1-0.3-0.2-0.5-0.3c-0.1-0.1-0.2-0.2-0.3-0.4
		c-0.1,0-0.2,0-0.4,0c-0.1,0-0.3,0-0.4-0.1c-0.3-0.1-0.6-0.3-0.8-0.6c-0.4,0-0.8-0.1-1.2-0.1l-0.1,0.2c-0.3,0.3-0.7,0.4-1.1,0.4
		c-0.2,0-0.4,0-0.6-0.1c-0.2-0.1-0.3-0.2-0.5-0.3c-0.1-0.1-0.2-0.2-0.2-0.4c-0.1,0-0.1,0-0.2,0c-0.1,0-0.2,0.1-0.3,0.1
		c-0.2,0-0.4,0-0.6-0.1c-0.9,0-1.8-0.1-2.7-0.1c-0.2,0.2-0.4,0.3-0.6,0.3c-0.2,0.1-0.4,0.1-0.6,0c-0.2,0-0.4-0.1-0.6-0.2
		c-0.1-0.1-0.2-0.1-0.2-0.2c-0.2,0-0.4,0-0.6,0c0,0-0.1,0-0.1,0c-0.9,0-1.7,0-2.6,0c-0.1,0.1-0.2,0.2-0.4,0.3
		c-0.2,0.1-0.4,0.2-0.6,0.2c-0.2,0-0.4,0-0.6,0c-0.1,0-0.3-0.1-0.4-0.2c0,0.1-0.1,0.1-0.1,0.2c-0.3,0.3-0.7,0.4-1.1,0.4
		c-0.2,0-0.4,0-0.6-0.1c-0.2-0.1-0.3-0.2-0.5-0.3c-0.1-0.1-0.1-0.1-0.1-0.2c-0.5,0-0.9,0.1-1.4,0.1c0,0.1-0.1,0.1-0.1,0.2
		c-0.1,0.2-0.2,0.3-0.4,0.4c-0.1,0.1-0.3,0.2-0.5,0.3c-0.2,0-0.3,0.1-0.5,0c-0.1,0.1-0.1,0.2-0.2,0.2c-0.2,0.2-0.4,0.3-0.7,0.4
		c-0.1,0-0.3,0-0.4,0.1c-0.2,0-0.4,0-0.6-0.1c-0.2-0.1-0.3-0.2-0.5-0.3c-0.1-0.1-0.2-0.3-0.3-0.5c0,0,0-0.1,0-0.1
		c-0.1,0-0.1,0-0.2,0c0,2,1.5,2,2.5,4c1,1.5,1,1,0.5,3.5c-1.5,1-1,2.5-1,2.5c-1.5,1.5,0,2.5,0,2.5c3.7,0.6,8.4,0.8,13,0.7
		c-0.4,0-0.8,0-1.1,0c-1.7-0.1-3.4-0.1-5.1-0.2c-1.7-0.2-3.4-0.6-5.2-0.8c-0.8-0.1-1.5-0.6-1.5-1.5c0-0.8,0.7-1.6,1.5-1.5
		c1.7,0.2,3.4,0.6,5.2,0.8c1.6,0.1,3.1,0.1,4.7,0.2c3.4,0.2,6.5-0.2,9.8-1.1c0.8-0.2,1.4,0.2,1.7,0.8c0.1-0.3,0.3-1.6-1-2.4
		c-0.1-0.4-0.1-0.7-0.2-1c0,0.7-0.7,1.5-1.5,1.4c-5.7-0.6-11.4-0.4-17.1,0c-1.9,0.1-1.9-2.9,0-3c5.7-0.4,11.4-0.6,17.1,0
		c0.6,0.1,1.1,0.4,1.4,0.9c-0.1-0.7,0.1-0.8,0.8-1.8c1-2,2.5-2,2.5-4c0,0-0.1,0-0.1,0C35.8,26.1,35.8,26.3,35.7,26.4z M32.5,29.3
		c-0.2,0.8-1.1,1.2-1.8,1c-2.8-0.5-5.5-0.8-8.4-0.8c-1.4,0-2.8,0-4.2,0.1c-1.3,0.2-2.6,0.6-4,0.5c-1.9-0.1-1.9-3.1,0-3
		c1.4,0.1,2.8-0.4,4.2-0.5c1.4-0.1,2.9-0.1,4.4-0.1c3,0,5.9,0.3,8.8,0.9C32.2,27.6,32.7,28.5,32.5,29.3z"/>
	<path class="st1" d="M28.7,30c-2.1-0.3-4.3-0.5-6.4-0.5c-1.4,0-2.8,0-4.2,0.1c-0.6,0.1-1.3,0.2-1.9,0.3H28.7z"/>
	<path class="st1" d="M6,10c-1.1,0-2,0.9-2,2s0.9,2,2,2s2-0.9,2-2S7.1,10,6,10z M6,13.6c-1.9,0-1.9-3,0-3C7.9,10.6,7.9,13.6,6,13.6z
		"/>
	<path class="st1" d="M14,7c-1.1,0-2,0.9-2,2s0.9,2,2,2s2-0.9,2-2S15.1,7,14,7z M14.1,10.4c-1.9,0-1.9-3,0-3
		C16,7.4,16,10.4,14.1,10.4z"/>
	<path class="st1" d="M22.5,6c-1.1,0-2,0.9-2,2s0.9,2,2,2s2-0.9,2-2S23.6,6,22.5,6z M22.5,9.6c-1.9,0-1.9-3,0-3
		C24.4,6.6,24.4,9.6,22.5,9.6z"/>
	<path class="st1" d="M31,7c-1.1,0-2,0.9-2,2s0.9,2,2,2s2-0.9,2-2S32.1,7,31,7z M31,10.5c-1.9,0-1.9-3,0-3C33,7.5,33,10.5,31,10.5z"
		/>
	<path class="st1" d="M39,10c-1.1,0-2,0.9-2,2s0.9,2,2,2s2-0.9,2-2S40.1,10,39,10z M39.1,13.4c-1.9,0-1.9-3,0-3
		C41,10.4,41,13.4,39.1,13.4z"/>
	<path class="st0" d="M22.9,39.2c-1.7-0.1-3.4-0.1-5.1-0.2c-1-0.1-1.9-0.3-2.9-0.4H11c7.4,2.6,15.6,2.6,23,0h-2.9
		C28.4,39.1,25.7,39.4,22.9,39.2z"/>
	<g>
		<path class="st1" d="M17.8,35.9c1.6,0.1,3.1,0.1,4.7,0.2c0.6,0,1.2,0.1,1.8,0.1c3.1-0.2,6.2-0.7,9.1-1.7h-22
			c1.7,0.6,3.4,1,5.2,1.3C17.1,35.9,17.4,35.9,17.8,35.9z"/>
		<path class="st1" d="M22.9,39.2c-1.7-0.1-3.4-0.1-5.1-0.2c-1.7-0.2-3.4-0.6-5.2-0.8c-0.5-0.1-1-0.3-1.2-0.7h-0.9
			C17.4,40,25,40.3,32,38.3C29,39,26,39.4,22.9,39.2z"/>
	</g>
</g>
</svg>
