<?xml version="1.0" encoding="utf-8"?>
<!-- Generator: Adobe Illustrator 24.2.1, SVG Export Plug-In . SVG Version: 6.00 Build 0)  -->
<svg version="1.1" id="Layer_1" xmlns="http://www.w3.org/2000/svg" xmlns:xlink="http://www.w3.org/1999/xlink" x="0px" y="0px"
	 viewBox="0 0 45 45" style="enable-background:new 0 0 45 45;" xml:space="preserve">
<style type="text/css">
	.st0{fill-rule:evenodd;clip-rule:evenodd;fill:none;stroke:#20C20E;stroke-width:1.5;stroke-linejoin:round;}
	.st1{fill:none;stroke:#20C20E;stroke-width:1.5;stroke-linecap:round;}
</style>
<g transform="translate(0,0.6)">
	<g>
		<path class="st0" d="M9,36c3.4-1,10.1,0.4,13.5-2c3.4,2.4,10.1,1,13.5,2c0,0,1.7,0.5,3,2c-0.7,1-1.7,1-3,0.5
			c-3.4-1-10.1,0.5-13.5-1c-3.4,1.5-10.1,0-13.5,1C7.7,39,6.7,39,6,38C7.3,36.5,9,36,9,36z"/>
		<path class="st0" d="M15,32c2.5,2.5,12.5,2.5,15,0c0.5-1.5,0-2,0-2c0-2.5-2.5-4-2.5-4c5.5-1.5,6-11.5-5-15.5c-11,4-10.5,14-5,15.5
			c0,0-2.5,1.5-2.5,4C15,30,14.5,30.5,15,32z"/>
		<path class="st0" d="M25,8c0,1.4-1.1,2.5-2.5,2.5S20,9.4,20,8s1.1-2.5,2.5-2.5S25,6.6,25,8z"/>
	</g>
	<path class="st1" d="M17.5,26h10 M15,30h15 M22.5,15.5v5 M20,18h5"/>
</g>
</svg>
