<?xml version="1.0" encoding="utf-8"?>
<!-- Generator: Adobe Illustrator 24.2.1, SVG Export Plug-In . SVG Version: 6.00 Build 0)  -->
<svg version="1.1" id="Layer_1" xmlns="http://www.w3.org/2000/svg" xmlns:xlink="http://www.w3.org/1999/xlink" x="0px" y="0px"
	 viewBox="0 0 45 45" style="enable-background:new 0 0 45 45;" xml:space="preserve">
<style type="text/css">
	.st0{fill:none;stroke:#20C20E;stroke-width:1.5;stroke-linejoin:round;}
</style>
<g>
	<path class="st0" d="M9,26c8.5-1.5,21-1.5,27,0l2.5-12.5L31,25l-0.3-14.1l-5.2,13.6l-3-14.5l-3,14.5l-5.2-13.6L14,25L6.5,13.5L9,26
		z"/>
	<path class="st0" d="M9,26c0,2,1.5,2,2.5,4c1,1.5,1,1,0.5,3.5c-1.5,1-1,2.5-1,2.5c-1.5,1.5,0,2.5,0,2.5c6.5,1,16.5,1,23,0
		c0,0,1.5-1,0-2.5c0,0,0.5-1.5-1-2.5c-0.5-2.5-0.5-2,0.5-3.5c1-2,2.5-2,2.5-4C27.5,24.5,17.5,24.5,9,26z"/>
	<path class="st0" d="M11.5,30c3.5-1,18.5-1,22,0"/>
	<path class="st0" d="M12,33.5c6-1,15-1,21,0"/>
	<circle class="st0" cx="6" cy="12" r="2"/>
	<circle class="st0" cx="14" cy="9" r="2"/>
	<circle class="st0" cx="22.5" cy="8" r="2"/>
	<circle class="st0" cx="31" cy="9" r="2"/>
	<circle class="st0" cx="39" cy="12" r="2"/>
</g>
</svg>
